<?xml version="1.0" encoding="UTF-8" standalone="no"?>
<svg xmlns="http://www.w3.org/2000/svg" version="1.2" baseProfile="tiny" viewBox="0.00 0.00 445.00 454.00">
<g stroke-width="2.00" fill="none" stroke-linecap="butt">
<path stroke="#909fb5" vector-effect="non-scaling-stroke" d="
  M 94.82 311.39
  L 126.94 330.20
  A 0.62 0.62 0.0 0 0 127.87 329.66
  L 127.87 150.57
  A 0.84 0.83 75.0 0 1 128.28 149.85
  Q 163.41 129.36 182.60 118.19
  C 186.80 115.74 191.22 113.98 196.00 113.52
  Q 204.95 112.66 213.78 114.95
  Q 236.98 120.96 246.45 143.36
  Q 250.99 154.08 250.81 168.25
  Q 250.64 181.09 247.55 190.93"
/>
<path stroke="#868da7" vector-effect="non-scaling-stroke" d="
  M 247.55 190.93
  Q 242.78 204.05 233.29 213.09
  Q 228.63 217.53 214.49 225.82
  Q 202.86 232.64 191.04 239.64"
/>
<path stroke="#909fb5" vector-effect="non-scaling-stroke" d="
  M 191.04 239.64
  L 162.50 256.20
  A 0.63 0.63 0.0 0 0 162.18 256.75
  L 162.18 349.95
  A 0.94 0.92 15.0 0 0 162.66 350.76
  Q 167.12 353.20 179.86 360.73
  Q 193.41 368.74 197.73 370.46
  Q 216.84 378.04 236.61 366.37
  Q 267.41 348.18 329.59 311.84
  Q 338.00 306.92 341.82 303.60
  Q 353.81 293.18 355.19 277.09"
/>
<path stroke="#868da7" vector-effect="non-scaling-stroke" d="
  M 355.19 277.09
  Q 355.41 274.39 355.41 271.98
  Q 355.38 160.40 355.38 159.44
  C 355.43 148.88 354.03 140.72 348.36 133.16
  Q 342.37 125.16 335.89 121.37
  Q 295.47 97.73 255.02 74.15"
/>
<path stroke="#909fb5" vector-effect="non-scaling-stroke" d="
  M 255.02 74.15
  Q 238.82 64.48 231.64 60.60
  Q 222.31 55.55 210.97 55.84"
/>
<path stroke="#868da7" vector-effect="non-scaling-stroke" d="
  M 210.97 55.84
  Q 199.85 56.37 191.03 61.50
  Q 169.09 74.24 91.35 120.09
  C 78.19 127.84 70.20 140.67 70.09 155.99
  C 69.91 182.04 69.92 218.29 69.99 268.00
  Q 70.00 275.59 70.28 277.99
  C 72.19 294.46 81.26 303.74 94.82 311.39"
/>
<path stroke="#172c5c" vector-effect="non-scaling-stroke" d="
  M 210.97 55.84
  L 213.34 56.22
  A 0.53 0.53 0.0 0 1 213.27 57.27
  Q 203.81 57.60 195.83 60.59
  Q 193.95 61.30 184.43 66.78
  Q 182.61 67.83 173.23 73.29
  Q 143.28 90.74 138.31 93.83
  C 134.74 96.06 131.44 97.39 128.33 99.49
  Q 123.56 102.69 115.47 106.90
  A 5.89 5.87 -77.1 0 0 114.58 107.46
  C 110.19 110.81 104.98 112.92 100.88 115.70
  C 95.90 119.07 90.52 121.72 85.37 125.90
  C 82.77 128.01 81.61 129.66 79.15 132.61
  C 73.00 139.97 71.16 149.63 71.18 159.26
  Q 71.28 225.04 71.16 257.53
  Q 71.15 258.96 71.33 259.97
  A 3.87 3.75 -49.8 0 1 71.39 260.84
  C 70.83 275.66 70.78 286.21 78.91 296.84
  Q 80.71 299.21 86.69 304.22
  Q 90.82 307.68 94.82 311.39"
/>
<path stroke="#172c5c" vector-effect="non-scaling-stroke" d="
  M 255.02 74.15
  Q 254.56 74.09 254.44 74.16
  A 0.72 0.71 44.8 0 0 254.45 75.40
  Q 274.59 86.63 289.11 95.40
  Q 290.38 96.17 316.77 111.58
  Q 319.46 113.16 333.82 121.61
  C 337.29 123.65 342.39 127.66 344.36 129.96
  Q 353.60 140.78 353.78 152.41
  Q 354.19 178.30 353.91 268.48
  Q 353.89 273.26 355.19 277.09"
/>
<path stroke="#172c5c" vector-effect="non-scaling-stroke" d="
  M 191.04 239.64
  Q 197.85 237.45 203.89 233.53
  Q 207.18 231.40 208.40 230.84
  Q 211.19 229.55 213.03 228.30
  C 217.53 225.21 220.66 223.80 225.57 221.07
  Q 229.90 218.67 237.73 210.83
  A 3.81 3.48 -10.8 0 0 238.36 209.99
  Q 239.65 207.63 243.94 201.45
  Q 247.38 196.49 247.55 190.93"
/>
<path stroke="#909fb5" vector-effect="non-scaling-stroke" d="
  M 163.14 221.53
  Q 180.21 211.56 200.78 199.31
  C 212.32 192.43 218.98 181.73 218.09 168.27
  C 217.24 155.36 210.31 144.75 195.76 147.01
  Q 191.73 147.63 186.46 150.70
  Q 176.30 156.60 162.83 164.51
  A 1.29 1.27 74.8 0 0 162.21 165.61
  L 162.21 220.99
  A 0.62 0.62 0.0 0 0 163.14 221.53"
/>
<path stroke="#3966a0" vector-effect="non-scaling-stroke" d="
  M 268.58 218.28
  Q 264.59 220.09 256.98 224.51
  Q 221.45 245.16 220.63 245.63
  Q 218.53 246.84 214.82 249.26
  A 1.76 1.75 -16.6 0 0 214.02 250.73
  L 214.02 283.24
  A 0.50 0.50 0.0 0 0 214.78 283.67
  L 268.55 252.40"
/>
<path stroke="#909fb5" vector-effect="non-scaling-stroke" d="
  M 268.55 252.40
  L 268.52 299.25
  A 0.36 0.36 0.0 0 0 269.07 299.56
  Q 279.60 293.34 289.94 287.39
  C 296.42 283.66 300.15 279.67 300.18 272.00
  Q 300.42 209.78 300.19 154.02
  C 300.17 147.47 296.52 142.91 290.81 139.65
  Q 280.71 133.88 269.07 126.99
  A 0.37 0.36 15.3 0 0 268.52 127.30
  L 268.58 218.28"
/>
<path stroke="#a8c7eb" vector-effect="non-scaling-stroke" d="
  M 268.55 252.40
  L 268.58 218.28"
/>
</g>
<path fill="#ffffff" d="
  M 445.00 0.00
  L 445.00 454.00
  L 0.00 454.00
  L 0.00 0.00
  L 445.00 0.00
  Z
  M 94.82 311.39
  L 126.94 330.20
  A 0.62 0.62 0.0 0 0 127.87 329.66
  L 127.87 150.57
  A 0.84 0.83 75.0 0 1 128.28 149.85
  Q 163.41 129.36 182.60 118.19
  C 186.80 115.74 191.22 113.98 196.00 113.52
  Q 204.95 112.66 213.78 114.95
  Q 236.98 120.96 246.45 143.36
  Q 250.99 154.08 250.81 168.25
  Q 250.64 181.09 247.55 190.93
  Q 242.78 204.05 233.29 213.09
  Q 228.63 217.53 214.49 225.82
  Q 202.86 232.64 191.04 239.64
  L 162.50 256.20
  A 0.63 0.63 0.0 0 0 162.18 256.75
  L 162.18 349.95
  A 0.94 0.92 15.0 0 0 162.66 350.76
  Q 167.12 353.20 179.86 360.73
  Q 193.41 368.74 197.73 370.46
  Q 216.84 378.04 236.61 366.37
  Q 267.41 348.18 329.59 311.84
  Q 338.00 306.92 341.82 303.60
  Q 353.81 293.18 355.19 277.09
  Q 355.41 274.39 355.41 271.98
  Q 355.38 160.40 355.38 159.44
  C 355.43 148.88 354.03 140.72 348.36 133.16
  Q 342.37 125.16 335.89 121.37
  Q 295.47 97.73 255.02 74.15
  Q 238.82 64.48 231.64 60.60
  Q 222.31 55.55 210.97 55.84
  Q 199.85 56.37 191.03 61.50
  Q 169.09 74.24 91.35 120.09
  C 78.19 127.84 70.20 140.67 70.09 155.99
  C 69.91 182.04 69.92 218.29 69.99 268.00
  Q 70.00 275.59 70.28 277.99
  C 72.19 294.46 81.26 303.74 94.82 311.39
  Z
  M 163.14 221.53
  Q 180.21 211.56 200.78 199.31
  C 212.32 192.43 218.98 181.73 218.09 168.27
  C 217.24 155.36 210.31 144.75 195.76 147.01
  Q 191.73 147.63 186.46 150.70
  Q 176.30 156.60 162.83 164.51
  A 1.29 1.27 74.8 0 0 162.21 165.61
  L 162.21 220.99
  A 0.62 0.62 0.0 0 0 163.14 221.53
  Z"
/>
<path fill="#0d1a4e" d="
  M 210.97 55.84
  L 213.34 56.22
  A 0.53 0.53 0.0 0 1 213.27 57.27
  Q 203.81 57.60 195.83 60.59
  Q 193.95 61.30 184.43 66.78
  Q 182.61 67.83 173.23 73.29
  Q 143.28 90.74 138.31 93.83
  C 134.74 96.06 131.44 97.39 128.33 99.49
  Q 123.56 102.69 115.47 106.90
  A 5.89 5.87 -77.1 0 0 114.58 107.46
  C 110.19 110.81 104.98 112.92 100.88 115.70
  C 95.90 119.07 90.52 121.72 85.37 125.90
  C 82.77 128.01 81.61 129.66 79.15 132.61
  C 73.00 139.97 71.16 149.63 71.18 159.26
  Q 71.28 225.04 71.16 257.53
  Q 71.15 258.96 71.33 259.97
  A 3.87 3.75 -49.8 0 1 71.39 260.84
  C 70.83 275.66 70.78 286.21 78.91 296.84
  Q 80.71 299.21 86.69 304.22
  Q 90.82 307.68 94.82 311.39
  C 81.26 303.74 72.19 294.46 70.28 277.99
  Q 70.00 275.59 69.99 268.00
  C 69.92 218.29 69.91 182.04 70.09 155.99
  C 70.20 140.67 78.19 127.84 91.35 120.09
  Q 169.09 74.24 191.03 61.50
  Q 199.85 56.37 210.97 55.84
  Z"
/>
<path fill="#213e6a" d="
  M 255.02 74.15
  Q 254.56 74.09 254.44 74.16
  A 0.72 0.71 44.8 0 0 254.45 75.40
  Q 274.59 86.63 289.11 95.40
  Q 290.38 96.17 316.77 111.58
  Q 319.46 113.16 333.82 121.61
  C 337.29 123.65 342.39 127.66 344.36 129.96
  Q 353.60 140.78 353.78 152.41
  Q 354.19 178.30 353.91 268.48
  Q 353.89 273.26 355.19 277.09
  Q 353.81 293.18 341.82 303.60
  Q 338.00 306.92 329.59 311.84
  Q 267.41 348.18 236.61 366.37
  Q 216.84 378.04 197.73 370.46
  Q 193.41 368.74 179.86 360.73
  Q 167.12 353.20 162.66 350.76
  A 0.94 0.92 15.0 0 1 162.18 349.95
  L 162.18 256.75
  A 0.63 0.63 0.0 0 1 162.50 256.20
  L 191.04 239.64
  Q 197.85 237.45 203.89 233.53
  Q 207.18 231.40 208.40 230.84
  Q 211.19 229.55 213.03 228.30
  C 217.53 225.21 220.66 223.80 225.57 221.07
  Q 229.90 218.67 237.73 210.83
  A 3.81 3.48 -10.8 0 0 238.36 209.99
  Q 239.65 207.63 243.94 201.45
  Q 247.38 196.49 247.55 190.93
  Q 250.64 181.09 250.81 168.25
  Q 250.99 154.08 246.45 143.36
  Q 236.98 120.96 213.78 114.95
  Q 204.95 112.66 196.00 113.52
  C 191.22 113.98 186.80 115.74 182.60 118.19
  Q 163.41 129.36 128.28 149.85
  A 0.84 0.83 75.0 0 0 127.87 150.57
  L 127.87 329.66
  A 0.62 0.62 0.0 0 1 126.94 330.20
  L 94.82 311.39
  Q 90.82 307.68 86.69 304.22
  Q 80.71 299.21 78.91 296.84
  C 70.78 286.21 70.83 275.66 71.39 260.84
  A 3.87 3.75 -49.8 0 0 71.33 259.97
  Q 71.15 258.96 71.16 257.53
  Q 71.28 225.04 71.18 159.26
  C 71.16 149.63 73.00 139.97 79.15 132.61
  C 81.61 129.66 82.77 128.01 85.37 125.90
  C 90.52 121.72 95.90 119.07 100.88 115.70
  C 104.98 112.92 110.19 110.81 114.58 107.46
  A 5.89 5.87 -77.1 0 1 115.47 106.90
  Q 123.56 102.69 128.33 99.49
  C 131.44 97.39 134.74 96.06 138.31 93.83
  Q 143.28 90.74 173.23 73.29
  Q 182.61 67.83 184.43 66.78
  Q 193.95 61.30 195.83 60.59
  Q 203.81 57.60 213.27 57.27
  A 0.53 0.53 0.0 0 0 213.34 56.22
  L 210.97 55.84
  Q 222.31 55.55 231.64 60.60
  Q 238.82 64.48 255.02 74.15
  Z
  M 268.58 218.28
  Q 264.59 220.09 256.98 224.51
  Q 221.45 245.16 220.63 245.63
  Q 218.53 246.84 214.82 249.26
  A 1.76 1.75 -16.6 0 0 214.02 250.73
  L 214.02 283.24
  A 0.50 0.50 0.0 0 0 214.78 283.67
  L 268.55 252.40
  L 268.52 299.25
  A 0.36 0.36 0.0 0 0 269.07 299.56
  Q 279.60 293.34 289.94 287.39
  C 296.42 283.66 300.15 279.67 300.18 272.00
  Q 300.42 209.78 300.19 154.02
  C 300.17 147.47 296.52 142.91 290.81 139.65
  Q 280.71 133.88 269.07 126.99
  A 0.37 0.36 15.3 0 0 268.52 127.30
  L 268.58 218.28
  Z"
/>
<path fill="#0d1a4e" d="
  M 255.02 74.15
  Q 295.47 97.73 335.89 121.37
  Q 342.37 125.16 348.36 133.16
  C 354.03 140.72 355.43 148.88 355.38 159.44
  Q 355.38 160.40 355.41 271.98
  Q 355.41 274.39 355.19 277.09
  Q 353.89 273.26 353.91 268.48
  Q 354.19 178.30 353.78 152.41
  Q 353.60 140.78 344.36 129.96
  C 342.39 127.66 337.29 123.65 333.82 121.61
  Q 319.46 113.16 316.77 111.58
  Q 290.38 96.17 289.11 95.40
  Q 274.59 86.63 254.45 75.40
  A 0.72 0.71 44.8 0 1 254.44 74.16
  Q 254.56 74.09 255.02 74.15
  Z"
/>
<path fill="#ffffff" d="
  M 268.55 252.40
  L 268.58 218.28
  L 268.52 127.30
  A 0.37 0.36 15.3 0 1 269.07 126.99
  Q 280.71 133.88 290.81 139.65
  C 296.52 142.91 300.17 147.47 300.19 154.02
  Q 300.42 209.78 300.18 272.00
  C 300.15 279.67 296.42 283.66 289.94 287.39
  Q 279.60 293.34 269.07 299.56
  A 0.36 0.36 0.0 0 1 268.52 299.25
  L 268.55 252.40
  Z"
/>
<path fill="#213e6a" d="
  M 163.14 221.53
  A 0.62 0.62 0.0 0 1 162.21 220.99
  L 162.21 165.61
  A 1.29 1.27 74.8 0 1 162.83 164.51
  Q 176.30 156.60 186.46 150.70
  Q 191.73 147.63 195.76 147.01
  C 210.31 144.75 217.24 155.36 218.09 168.27
  C 218.98 181.73 212.32 192.43 200.78 199.31
  Q 180.21 211.56 163.14 221.53
  Z"
/>
<path fill="#0d1a4e" d="
  M 247.55 190.93
  Q 247.38 196.49 243.94 201.45
  Q 239.65 207.63 238.36 209.99
  A 3.81 3.48 -10.8 0 1 237.73 210.83
  Q 229.90 218.67 225.57 221.07
  C 220.66 223.80 217.53 225.21 213.03 228.30
  Q 211.19 229.55 208.40 230.84
  Q 207.18 231.40 203.89 233.53
  Q 197.85 237.45 191.04 239.64
  Q 202.86 232.64 214.49 225.82
  Q 228.63 217.53 233.29 213.09
  Q 242.78 204.05 247.55 190.93
  Z"
/>
<path fill="#508ed6" d="
  M 268.58 218.28
  L 268.55 252.40
  L 214.78 283.67
  A 0.50 0.50 0.0 0 1 214.02 283.24
  L 214.02 250.73
  A 1.76 1.75 -16.6 0 1 214.82 249.26
  Q 218.53 246.84 220.63 245.63
  Q 221.45 245.16 256.98 224.51
  Q 264.59 220.09 268.58 218.28
  Z"
/>
</svg>
