<?xml version="1.0" encoding="UTF-8" standalone="no"?>
<svg
   version="1.2"
   viewBox="0 0 198025 206116"
   id="svg21"
   sodipodi:docname="Screenshot 2025-10-07 at 5.30.11 AM.svg"
   width="198025"
   height="206116"
   xmlns:inkscape="http://www.inkscape.org/namespaces/inkscape"
   xmlns:sodipodi="http://sodipodi.sourceforge.net/DTD/sodipodi-0.dtd"
   xmlns="http://www.w3.org/2000/svg"
   xmlns:svg="http://www.w3.org/2000/svg">
  <defs
     id="defs21" />
  <sodipodi:namedview
     id="namedview21"
     pagecolor="#ffffff"
     bordercolor="#000000"
     borderopacity="0.25"
     inkscape:showpageshadow="2"
     inkscape:pageopacity="0.0"
     inkscape:pagecheckerboard="0"
     inkscape:deskcolor="#d1d1d1">
    <inkscape:page
       x="0"
       y="0"
       width="198025"
       height="206116"
       id="page2"
       margin="0"
       bleed="0" />
  </sodipodi:namedview>
  <g
     stroke-width="2"
     fill="none"
     stroke-linecap="butt"
     id="g13">
    <path
       stroke="#909fb5"
       vector-effect="non-scaling-stroke"
       d="m 94.82,311.39 32.12,18.81 a 0.62,0.62 0 0 0 0.93,-0.54 V 150.57 a 0.84,0.83 75 0 1 0.41,-0.72 q 35.13,-20.49 54.32,-31.66 c 4.2,-2.45 8.62,-4.21 13.4,-4.67 q 8.95,-0.86 17.78,1.43 23.2,6.01 32.67,28.41 4.54,10.72 4.36,24.89 -0.17,12.84 -3.26,22.68"
       id="path1" />
    <path
       stroke="#868da7"
       vector-effect="non-scaling-stroke"
       d="m 247.55,190.93 q -4.77,13.12 -14.26,22.16 -4.66,4.44 -18.8,12.73 -11.63,6.82 -23.45,13.82"
       id="path2" />
    <path
       stroke="#909fb5"
       vector-effect="non-scaling-stroke"
       d="M 191.04,239.64 162.5,256.2 a 0.63,0.63 0 0 0 -0.32,0.55 v 93.2 a 0.94,0.92 15 0 0 0.48,0.81 q 4.46,2.44 17.2,9.97 13.55,8.01 17.87,9.73 19.11,7.58 38.88,-4.09 30.8,-18.19 92.98,-54.53 8.41,-4.92 12.23,-8.24 11.99,-10.42 13.37,-26.51"
       id="path3" />
    <path
       stroke="#868da7"
       vector-effect="non-scaling-stroke"
       d="m 355.19,277.09 q 0.22,-2.7 0.22,-5.11 -0.03,-111.58 -0.03,-112.54 c 0.05,-10.56 -1.35,-18.72 -7.02,-26.28 q -5.99,-8 -12.47,-11.79 -40.42,-23.64 -80.87,-47.22"
       id="path4" />
    <path
       stroke="#909fb5"
       vector-effect="non-scaling-stroke"
       d="M 255.02,74.15 Q 238.82,64.48 231.64,60.6 222.31,55.55 210.97,55.84"
       id="path5" />
    <path
       stroke="#868da7"
       vector-effect="non-scaling-stroke"
       d="m 210.97,55.84 q -11.12,0.53 -19.94,5.66 -21.94,12.74 -99.68,58.59 c -13.16,7.75 -21.15,20.58 -21.26,35.9 -0.18,26.05 -0.17,62.3 -0.1,112.01 q 0.01,7.59 0.29,9.99 c 1.91,16.47 10.98,25.75 24.54,33.4"
       id="path6" />
    <path
       stroke="#172c5c"
       vector-effect="non-scaling-stroke"
       d="m 210.97,55.84 2.37,0.38 a 0.53,0.53 0 0 1 -0.07,1.05 q -9.46,0.33 -17.44,3.32 -1.88,0.71 -11.4,6.19 -1.82,1.05 -11.2,6.51 -29.95,17.45 -34.92,20.54 c -3.57,2.23 -6.87,3.56 -9.98,5.66 q -4.77,3.2 -12.86,7.41 a 5.89,5.87 -77.1 0 0 -0.89,0.56 c -4.39,3.35 -9.6,5.46 -13.7,8.24 -4.98,3.37 -10.36,6.02 -15.51,10.2 -2.6,2.11 -3.76,3.76 -6.22,6.71 -6.15,7.36 -7.99,17.02 -7.97,26.65 q 0.1,65.78 -0.02,98.27 -0.01,1.43 0.17,2.44 a 3.87,3.75 -49.8 0 1 0.06,0.87 c -0.56,14.82 -0.61,25.37 7.52,36 q 1.8,2.37 7.78,7.38 4.13,3.46 8.13,7.17"
       id="path7" />
    <path
       stroke="#172c5c"
       vector-effect="non-scaling-stroke"
       d="m 255.02,74.15 q -0.46,-0.06 -0.58,0.01 a 0.72,0.71 44.8 0 0 0.01,1.24 q 20.14,11.23 34.66,20 1.27,0.77 27.66,16.18 2.69,1.58 17.05,10.03 c 3.47,2.04 8.57,6.05 10.54,8.35 q 9.24,10.82 9.42,22.45 0.41,25.89 0.13,116.07 -0.02,4.78 1.28,8.61"
       id="path8" />
    <path
       stroke="#172c5c"
       vector-effect="non-scaling-stroke"
       d="m 191.04,239.64 q 6.81,-2.19 12.85,-6.11 3.29,-2.13 4.51,-2.69 2.79,-1.29 4.63,-2.54 c 4.5,-3.09 7.63,-4.5 12.54,-7.23 q 4.33,-2.4 12.16,-10.24 a 3.81,3.48 -10.8 0 0 0.63,-0.84 q 1.29,-2.36 5.58,-8.54 3.44,-4.96 3.61,-10.52"
       id="path9" />
    <path
       stroke="#909fb5"
       vector-effect="non-scaling-stroke"
       d="m 163.14,221.53 q 17.07,-9.97 37.64,-22.22 c 11.54,-6.88 18.2,-17.58 17.31,-31.04 -0.85,-12.91 -7.78,-23.52 -22.33,-21.26 q -4.03,0.62 -9.3,3.69 -10.16,5.9 -23.63,13.81 a 1.29,1.27 74.8 0 0 -0.62,1.1 v 55.38 a 0.62,0.62 0 0 0 0.93,0.54"
       id="path10" />
    <path
       stroke="#3966a0"
       vector-effect="non-scaling-stroke"
       d="m 268.58,218.28 q -3.99,1.81 -11.6,6.23 -35.53,20.65 -36.35,21.12 -2.1,1.21 -5.81,3.63 a 1.76,1.75 -16.6 0 0 -0.8,1.47 v 32.51 a 0.5,0.5 0 0 0 0.76,0.43 l 53.77,-31.27"
       id="path11" />
    <path
       stroke="#909fb5"
       vector-effect="non-scaling-stroke"
       d="m 268.55,252.4 -0.03,46.85 a 0.36,0.36 0 0 0 0.55,0.31 q 10.53,-6.22 20.87,-12.17 c 6.48,-3.73 10.21,-7.72 10.24,-15.39 q 0.24,-62.22 0.01,-117.98 c -0.02,-6.55 -3.67,-11.11 -9.38,-14.37 q -10.1,-5.77 -21.74,-12.66 a 0.37,0.36 15.3 0 0 -0.55,0.31 l 0.06,90.98"
       id="path12" />
    <path
       stroke="#a8c7eb"
       vector-effect="non-scaling-stroke"
       d="m 268.55,252.4 0.03,-34.12"
       id="path13" />
  </g>
  <path
     fill="#ffffff"
     d="M 445,0 V 454 H 0 V 0 Z M 94.82,311.39 126.94,330.2 c 0.41452,0.23933 0.93237,-0.0614 0.93,-0.54 V 150.57 c 4.4e-4,-0.29718 0.15638,-0.57103 0.41,-0.72 23.42,-13.66 41.52667,-24.21333 54.32,-31.66 4.2,-2.45 8.62,-4.21 13.4,-4.67 5.96667,-0.57333 11.89333,-0.0967 17.78,1.43 15.46667,4.00667 26.35667,13.47667 32.67,28.41 3.02667,7.14667 4.48,15.44333 4.36,24.89 -0.11333,8.56 -1.2,16.12 -3.26,22.68 -3.18,8.74667 -7.93333,16.13333 -14.26,22.16 -13.0203,10.34077 -27.96283,18.09298 -42.25,26.55 L 162.5,256.2 c -0.19822,0.11204 -0.32056,0.32231 -0.32,0.55 v 93.2 c -4.1e-4,0.33385 0.18323,0.64373 0.48,0.81 2.97333,1.62667 8.70667,4.95 17.2,9.97 9.03333,5.34 14.99,8.58333 17.87,9.73 12.74,5.05333 25.7,3.69 38.88,-4.09 20.53333,-12.12667 51.52667,-30.30333 92.98,-54.53 5.60667,-3.28 9.68333,-6.02667 12.23,-8.24 7.99333,-6.94667 12.45,-15.78333 13.37,-26.51 0.14667,-1.8 0.22,-3.50333 0.22,-5.11 -0.02,-74.38667 -0.03,-111.9 -0.03,-112.54 0.05,-10.56 -1.35,-18.72 -7.02,-26.28 -3.99333,-5.33333 -8.15,-9.26333 -12.47,-11.79 -26.94667,-15.76 -53.90333,-31.5 -80.87,-47.22 -10.8,-6.446667 -18.59333,-10.963333 -23.38,-13.55 -6.22,-3.366667 -13.11,-4.953333 -20.67,-4.76 -7.41333,0.353333 -14.06,2.24 -19.94,5.66 -14.62667,8.493333 -47.85333,28.023333 -99.68,58.59 -13.16,7.75 -21.15,20.58 -21.26,35.9 -0.18,26.05 -0.17,62.3 -0.1,112.01 0.0067,5.06 0.103333,8.39 0.29,9.99 1.91,16.47 10.98,25.75 24.54,33.4 z m 68.32,-89.86 c 11.38,-6.64667 23.92667,-14.05333 37.64,-22.22 11.54,-6.88 18.2,-17.58 17.31,-31.04 -0.85,-12.91 -7.78,-23.52 -22.33,-21.26 -2.68667,0.41333 -5.78667,1.64333 -9.3,3.69 -6.77333,3.93333 -14.65,8.53667 -23.63,13.81 -0.384,0.22912 -0.61943,0.64681 -0.62,1.1 v 55.38 c -0.002,0.47864 0.51548,0.77933 0.93,0.54 z"
     id="path14"
     sodipodi:nodetypes="cccccccccccccccccccccccccccccccccccccccccccccccccc" />
  <path
     fill="#0d1a4e"
     d="m 210.97,55.84 2.37,0.38 a 0.53,0.53 0 0 1 -0.07,1.05 q -9.46,0.33 -17.44,3.32 -1.88,0.71 -11.4,6.19 -1.82,1.05 -11.2,6.51 -29.95,17.45 -34.92,20.54 c -3.57,2.23 -6.87,3.56 -9.98,5.66 q -4.77,3.2 -12.86,7.41 a 5.87,5.89 12.9 0 0 -0.89,0.56 c -4.39,3.35 -9.6,5.46 -13.7,8.24 -4.98,3.37 -10.36,6.02 -15.51,10.2 -2.6,2.11 -3.76,3.76 -6.22,6.71 -6.15,7.36 -7.99,17.02 -7.97,26.65 q 0.1,65.78 -0.02,98.27 -0.01,1.43 0.17,2.44 a 3.75,3.87 40.2 0 1 0.06,0.87 c -0.56,14.82 -0.61,25.37 7.52,36 q 1.8,2.37 7.78,7.38 4.13,3.46 8.13,7.17 C 81.26,303.74 72.19,294.46 70.28,277.99 Q 70,275.59 69.99,268 c -0.07,-49.71 -0.08,-85.96 0.1,-112.01 0.11,-15.32 8.1,-28.15 21.26,-35.9 q 77.74,-45.85 99.68,-58.59 8.82,-5.13 19.94,-5.66 z"
     id="path15" />
  <path
     fill="#213e6a"
     d="m 255.02,74.15 c -0.30667,-0.04 -0.5,-0.03667 -0.58,0.01 -0.47636,0.271991 -0.4708,0.962341 0.01,1.24 13.42667,7.486667 24.98,14.153333 34.66,20 0.84667,0.513333 10.06667,5.90667 27.66,16.18 1.79333,1.05333 7.47667,4.39667 17.05,10.03 3.47,2.04 8.57,6.05 10.54,8.35 6.16,7.21333 9.3,14.69667 9.42,22.45 0.27333,17.26 0.31667,55.95 0.13,116.07 -0.0133,3.18667 0.41333,6.05667 1.28,8.61 -0.92,10.72667 -5.37667,19.56333 -13.37,26.51 -2.54667,2.21333 -6.62333,4.96 -12.23,8.24 -41.45333,24.22667 -72.44667,42.40333 -92.98,54.53 -13.18,7.78 -26.14,9.14333 -38.88,4.09 -2.88,-1.14667 -8.83667,-4.39 -17.87,-9.73 -8.49333,-5.02 -14.22667,-8.34333 -17.2,-9.97 -0.29677,-0.16627 -0.48041,-0.47615 -0.48,-0.81 v -93.2 c -5.6e-4,-0.22769 0.12178,-0.43796 0.32,-0.55 l 28.54,-16.56 c 4.13066,-1.32836 31.23838,-14.11643 46.69,-28.81 0.25196,-0.25196 0.46416,-0.53488 0.63,-0.84 0.86,-1.57333 2.72,-4.42 5.58,-8.54 2.29333,-3.30667 3.49667,-6.81333 3.61,-10.52 2.06,-6.56 3.14667,-14.12 3.26,-22.68 0.12,-9.44667 -1.33333,-17.74333 -4.36,-24.89 -6.31333,-14.93333 -17.20333,-24.40333 -32.67,-28.41 -5.88667,-1.52667 -11.81333,-2.00333 -17.78,-1.43 -4.78,0.46 -9.2,2.22 -13.4,4.67 -12.79333,7.44667 -30.9,18 -54.32,31.66 -0.25362,0.14897 -0.40956,0.42282 -0.41,0.72 l -0.0643,157.21273 42.09812,23.11729 -7.97967,18.81208 C 171.02613,357.19074 127.35452,330.43933 126.94,330.2 L 94.82,311.39 c -2.666667,-2.47333 -5.376667,-4.86333 -8.13,-7.17 -3.986667,-3.34 -6.58,-5.8 -7.78,-7.38 -8.13,-10.63 -8.08,-21.18 -7.52,-36 0.01327,-0.29239 -0.0069,-0.5843 -0.06,-0.87 -0.12,-0.67333 -0.176667,-1.48667 -0.17,-2.44 0.08,-21.66 0.08667,-54.41667 0.02,-98.27 -0.02,-9.63 1.82,-19.29 7.97,-26.65 2.46,-2.95 3.62,-4.6 6.22,-6.71 5.15,-4.18 10.53,-6.83 15.51,-10.2 4.1,-2.78 9.31,-4.89 13.7,-8.24 0.27944,-0.21293 0.57729,-0.40034 0.89,-0.56 5.39333,-2.80667 9.68,-5.27667 12.86,-7.41 3.11,-2.1 6.41,-3.43 9.98,-5.66 3.31333,-2.06 14.95333,-8.906667 34.92,-20.54 6.25333,-3.64 9.98667,-5.81 11.2,-6.51 6.34667,-3.653333 10.14667,-5.716667 11.4,-6.19 5.32,-1.993333 11.13333,-3.1 17.44,-3.32 0.62544,-0.03368 0.68543,-0.933596 0.07,-1.05 l -2.37,-0.38 c 7.56,-0.193333 14.45,1.393333 20.67,4.76 4.78667,2.586667 12.58,7.103333 23.38,13.55 z m 13.56,144.13 c -2.66,1.20667 -6.52667,3.28333 -11.6,6.23 -23.68667,13.76667 -35.80333,20.80667 -36.35,21.12 -1.4,0.80667 -3.33667,2.01667 -5.81,3.63 -0.49894,0.32453 -0.79995,0.87764 -0.8,1.47 v 32.51 c -0.002,0.39139 0.42569,0.63353 0.76,0.43 l 53.77,-31.27 -0.03,46.85 c -0.003,0.28423 0.30857,0.46004 0.55,0.31 7.02,-4.14667 13.97667,-8.20333 20.87,-12.17 6.48,-3.73 10.21,-7.72 10.24,-15.39 0.16,-41.48 0.16333,-80.80667 0.01,-117.98 -0.02,-6.55 -3.67,-11.11 -9.38,-14.37 -6.73333,-3.84667 -13.98,-8.06667 -21.74,-12.66 -0.24735,-0.13889 -0.55231,0.033 -0.55,0.31 z"
     id="path16"
     sodipodi:nodetypes="ccccccccccccccccccccccccccccccccccccsccccccccccccccccccccccccccccccccccccc" />
  <path
     fill="#0d1a4e"
     d="m 255.02,74.15 q 40.45,23.58 80.87,47.22 6.48,3.79 12.47,11.79 c 5.67,7.56 7.07,15.72 7.02,26.28 q 0,0.96 0.03,112.54 0,2.41 -0.22,5.11 -1.3,-3.83 -1.28,-8.61 0.28,-90.18 -0.13,-116.07 -0.18,-11.63 -9.42,-22.45 c -1.97,-2.3 -7.07,-6.31 -10.54,-8.35 Q 319.46,113.16 316.77,111.58 290.38,96.17 289.11,95.4 274.59,86.63 254.45,75.4 a 0.72,0.71 44.8 0 1 -0.01,-1.24 q 0.12,-0.07 0.58,-0.01 z"
     id="path17" />
  <path
     fill="#ffffff"
     d="m 268.55,252.4 0.03,-34.12 -0.06,-90.98 a 0.37,0.36 15.3 0 1 0.55,-0.31 q 11.64,6.89 21.74,12.66 c 5.71,3.26 9.36,7.82 9.38,14.37 q 0.23,55.76 -0.01,117.98 c -0.03,7.67 -3.76,11.66 -10.24,15.39 q -10.34,5.95 -20.87,12.17 a 0.36,0.36 0 0 1 -0.55,-0.31 z"
     id="path18" />
  <path
     fill="#213e6a"
     d="m 163.14,221.53 a 0.62,0.62 0 0 1 -0.93,-0.54 v -55.38 a 1.29,1.27 74.8 0 1 0.62,-1.1 q 13.47,-7.91 23.63,-13.81 5.27,-3.07 9.3,-3.69 c 14.55,-2.26 21.48,8.35 22.33,21.26 0.89,13.46 -5.77,24.16 -17.31,31.04 q -20.57,12.25 -37.64,22.22 z"
     id="path19" />
  <path
     fill="#0d1a4e"
     d="m 247.55,190.93 q -0.17,5.56 -3.61,10.52 -4.29,6.18 -5.58,8.54 a 3.48,3.81 79.2 0 1 -0.63,0.84 q -7.83,7.84 -12.16,10.24 c -4.91,2.73 -8.04,4.14 -12.54,7.23 q -1.84,1.25 -4.63,2.54 -1.22,0.56 -4.51,2.69 -6.04,3.92 -12.85,6.11 11.82,-7 23.45,-13.82 14.14,-8.29 18.8,-12.73 9.49,-9.04 14.26,-22.16 z"
     id="path20" />
  <path
     fill="#508ed6"
     d="m 268.58,218.28 -0.03,34.12 -53.77,31.27 a 0.5,0.5 0 0 1 -0.76,-0.43 v -32.51 a 1.75,1.76 73.4 0 1 0.8,-1.47 q 3.71,-2.42 5.81,-3.63 0.82,-0.47 36.35,-21.12 7.61,-4.42 11.6,-6.23 z"
     id="path21" />
</svg>
